<?xml version="1.0" standalone="no"?>
<!DOCTYPE svg PUBLIC "-//W3C//DTD SVG 20010904//EN"
 "http://www.w3.org/TR/2001/REC-SVG-20010904/DTD/svg10.dtd">
<svg version="1.0" xmlns="http://www.w3.org/2000/svg"
 width="621.000000pt" height="621.000000pt" viewBox="0 0 621.000000 621.000000"
 preserveAspectRatio="xMidYMid meet">
<metadata>
Created by potrace 1.11, written by Peter Selinger 2001-2013
</metadata>
<g transform="translate(0.000000,621.000000) scale(0.100000,-0.100000)"
fill="#000000" stroke="none">
<path d="M3 3110 l0 -3100 3100 2 3100 3 0 3095 0 3095 -3100 3 -3100 2 0
-3100z m5524 2441 l21 -1 -1 -2442 -2 -2443 -2442 0 -2443 0 0 2442 0 2442 23
3 c17 2 4764 1 4844 -1z"/>
<path d="M1790 4879 c0 -4 148 -154 329 -335 l328 -329 499 -1 c275 0 519 -4
542 -8 316 -53 518 -304 498 -622 -16 -280 -196 -483 -476 -539 -19 -4 -273
-8 -563 -10 -290 -1 -529 -4 -531 -6 -3 -3 212 -253 382 -444 15 -17 56 -63
92 -104 36 -41 77 -86 91 -100 15 -14 71 -78 125 -141 54 -63 110 -128 125
-145 15 -16 123 -140 239 -275 117 -135 229 -263 249 -285 20 -22 63 -72 96
-110 33 -39 64 -74 70 -80 8 -8 746 -13 863 -6 16 1 0 23 -97 130 -37 42 -128
144 -201 226 -73 83 -147 166 -164 185 -111 124 -436 490 -456 514 -14 16 -29
34 -35 40 -39 44 -40 43 37 61 431 103 730 401 822 822 25 109 26 122 33 259
10 223 -29 422 -120 609 -66 135 -115 202 -229 317 -177 177 -439 305 -703
343 -23 3 -52 8 -65 11 -29 6 -226 10 -1050 19 -327 4 -625 7 -663 8 -37 1
-67 -1 -67 -4z"/>
<path d="M1952 1896 c0 -306 3 -556 7 -556 66 -4 966 -1 966 3 0 4 -236 278
-351 407 -43 48 -186 212 -259 296 -33 38 -78 89 -101 114 -22 25 -54 61 -70
80 -33 39 -102 117 -155 174 l-36 39 -1 -557z"/>
</g>
</svg>
